<?xml version="1.0" encoding="utf-8"?>
<!-- Generator: Adobe Illustrator 29.6.1, SVG Export Plug-In . SVG Version: 9.03 Build 0)  -->
<svg version="1.0" id="Layer_1" xmlns="http://www.w3.org/2000/svg" xmlns:xlink="http://www.w3.org/1999/xlink" x="0px" y="0px"
	 viewBox="0 0 965.15 396.43" style="enable-background:new 0 0 965.15 396.43;" xml:space="preserve">
<style type="text/css">
	.st0{fill:#3D6C89;}
	.st1{fill:#59C1C1;}
</style>
<g>
	<g>
		<path class="st0" d="M933.46,62.14c-3.17-18.81-18.01-33.65-36.81-36.82c-46.12-7.76-92.22-6.95-138.33,2.42
			c-10.74,2.18-19.18,10.53-21.36,21.26c-0.02,0.14-0.05,0.28-0.09,0.42c-2.39,11.86,7.77,41.39,19.72,39.49
			c22.47-3.55,52.99-3.88,68.23-4.28c20.4-0.56,46.71,1.12,56.8,3.57c4.2,1.02,7.39,0.49,7.68,4.79v0.19
			c0.37,6.29-46.7,2.44-65.18,3.48c-10.85,0.63-41.93,3.05-66.57,9.58c-16.76,4.43-28.45,19.56-28.28,36.9
			c0.2,20.9,2.15,27,5.87,47.91c2.94,16.55,15.91,29.63,32.46,32.58c18.52,3.29,37.03,5.21,55.55,5.75
			c9.58,0.28,19.09-2.73,26.36-8.96c4.75-4.08,8.44-9.17,8.44-15.1c0-16.75,1.05-44.99-17.28-44.46
			c-12.6,0.36-35.63,1.72-48.75,2.52c-2.96,0.19-5.13-2.22-5.13-4.84c0-0.91,0.27-1.84,0.85-2.7c0.79-1.17,2.05-1.93,3.46-2.09
			c12.8-1.38,77.09-7.6,84.63,6.52c5.07,9.53,5.52,33.58,1.41,52.41c-1.59,7.27,4.6,13.87,11.97,12.78
			c5.48-0.8,10.96-1.74,16.44-2.79c13.2-2.53,23.68-12.7,26.22-25.89C940.46,151.88,941.01,106.99,933.46,62.14z M926.12,94.31
			l-1.23,0.07c-2.44-10.26-5.28-20.3-9.45-29.43c-2.1-4.54-4.57-8.84-7.59-12.46c-9.38-10.75-26.53-13.03-40-14.6
			c-10.03-1.04-20.25-1.28-30.48-1.17l-0.16-1.26c21.31-4.23,50.31-5.95,69.61,6.32c11.58,8.01,16.64,22.84,18.66,36.37
			C926.24,83.51,926.54,88.9,926.12,94.31z"/>
	</g>
	<g>
		<path class="st0" d="M232.42,60.53c-2.99-16.8-16.14-29.95-32.92-32.92c-43.98-7.8-87.96-7.8-131.96,0
			c-16.68,2.96-29.9,15.97-32.86,32.65c-1.99,11.19-3.47,22.39-4.46,33.58c-2.55,29.28,25.8,51.65,53.6,42.07
			c12.95-4.47,19.83-7.64,19.83,12.87c0,60.86-48.88,37.53-66.12,27.41c-2.23,1.63-2.48,1.81-4.71,3.43
			c5.76,25.57,27.08,45.28,53.48,48.62c7.52,0.96,15.06,1.68,22.57,2.17h0.06c0.33-0.04,0.69-0.06,1.06-0.1
			c38.61-3.33,57.64-23.8,65.76-36.28c1.53-2.34,5.16-1.15,5.01,1.65c-0.57,9.93-2.49,24.16-8.64,33.32
			c-0.06,0.07-0.1,0.14-0.19,0.22c7.52-0.77,15.03-1.75,22.55-2.97c20.07-3.28,35.6-19.2,38.86-39.27
			C240.21,144.83,239.89,102.67,232.42,60.53z M223.81,96.84l-1.23-0.04c-1.64-10.26-3.83-20.33-7.76-29.35
			c-1.97-4.47-4.44-8.69-7.55-12.06c-10.02-9.95-27.57-11.96-41.24-13.4c-10.22-0.94-20.58-1.16-30.98-1.07l-0.15-1.22
			c22.13-4.23,60.42-6.6,77.64,10.77c7.64,8.44,10.88,19.47,11.82,30.41C224.78,86.21,224.71,91.56,223.81,96.84z"/>
	</g>
	<g>
		<path class="st0" d="M503.7,60.49c-3.05-17.35-16.77-30.88-34.13-33.89c-2.78-0.49-5.54-0.94-8.31-1.36
			c-6.81-1.04-12.59,5.02-11.23,11.77c0.42,2.07,0.75,4.12,1.01,6.15c0.69,5.15-5.82,7.97-9.14,3.97
			c-7.81-9.42-20.87-20.45-41.59-26.15c0,0-0.02,0-0.04,0c-21.35,0.23-42.71,2.32-64.07,6.24c-15.27,2.8-27.16,14.7-29.98,29.98
			c-4.04,21.92-6.12,43.85-6.27,65.78c-0.12,17.34,12.76,32.06,29.96,34.22c6.57,0.83,14.08,1.38,22.58,1.47
			c14.56,0.12,45.45-2.95,56.06-11.03c0,0-5.32,21.71-55.1,25.38c-13.48,1.01-27.87,0.41-39.69-1.54
			c-5.63-0.93-10.55,3.91-9.71,9.56c1.47,9.97,3.36,19.94,5.63,29.91c1.11,4.83,4.9,8.59,9.71,9.7c20.21,4.63,40.42,7.61,60.63,8.93
			c0.35-0.05,0.72-0.06,1.1-0.1c56.2-4.86,70.91-45.99,70.91-45.99s1.47,29.41-8.77,44.67c-0.06,0.09-0.12,0.19-0.2,0.27
			c10.79-1.12,21.56-2.7,32.34-4.75c13.81-2.63,24.64-13.49,27.27-27.3C511.3,151.1,511.63,105.8,503.7,60.49z M410.02,103.11
			c-15.45,5.36-41.81,12.67-50.36,3.78c-12.35-12.86-11.13-23.74,3.49-32.3c10.17-5.95,34.46,8.03,48.31,17.12
			C415.92,94.62,415.04,101.35,410.02,103.11z M496.44,93.68l-1.23-0.02c-0.64-5.65-1.54-11.25-2.78-16.71
			c-2.18-9.28-5.12-18.56-11.28-25.84c-4.58-5-10.37-7.87-16.7-11.33l0.32-1.18c21.41,0.69,29.64,18.89,31.73,37.68
			C497.11,82.08,497.18,87.9,496.44,93.68z"/>
	</g>
	<g>
		<path class="st0" d="M668.95,51.15c-0.99-9.33-7.29-17.2-16.17-20.24c-21.23-7.29-42.45-7.29-63.68,0
			c-8.87,3.04-15.18,10.91-16.17,20.24c-5.55,52.42-5.55,104.85,0,157.27c0.99,9.33,7.29,17.2,16.17,20.25
			c21.23,7.29,42.45,7.29,63.68,0c8.87-3.05,15.18-10.92,16.17-20.25C674.5,156,674.5,103.58,668.95,51.15z M662.03,91.33
			l-1.93-0.11c-1.49-12.14-3.59-24.36-8.01-35.69c-0.41-0.99-0.91-2.07-1.32-3.07c-4.43-9.98-16.15-12.17-26.32-13.61l-0.12-1.22
			c9.77-2.32,21.2-1.1,28.62,6.39c1.9,1.91,3.28,4.33,4.31,6.81c3,6.74,4.7,14.04,5.41,21.26
			C663.25,78.52,663.19,84.97,662.03,91.33z"/>
	</g>
	<g>
		<path class="st1" d="M957.44,50.28c-2.72-15.24-12.09-29.06-25.42-36.96l-3.09-1.74l-3.21-1.49c-0.91-0.41-2.37-0.94-3.31-1.28
			c-1.55-0.64-3.47-1.05-5.06-1.55c-7.11-1.53-14.92-2.47-22.1-3.47c-27.09-3.44-54.64-4.57-81.92-3.18
			c-14.75,0.7-29.62,2.23-44.24,4.33c-2.42,0.33-7.6,1.22-10.13,1.58c-22.03,3.67-39.76,21.21-43.8,43.17
			c-2.74,15.02-4.76,30.64-6.02,45.86c-3.01,36.44-1.62,73.3,4.1,109.52c1.55,9.6,5.52,19,11.79,26.64
			c5.39,6.7,12.51,12.16,20.34,15.75c0.93,0.46,2.51,1.01,3.44,1.41c1.63,0.7,3.64,1.16,5.31,1.73c2.95,0.69,5.99,1.33,8.77,1.74
			c5.22,0.95,11.75,1.94,17.02,2.67c12.35,1.67,25.3,2.85,37.75,3.48c16.03,0.78,32.27,0.74,48.28-0.3
			c15.94-1.06,32.18-3.21,47.89-6.03c21.78-3.87,40.01-21.09,44.9-42.66c0.2-0.88,0.54-2.78,0.73-3.64
			c0.19-1.09,0.64-4.06,0.78-5.13c0.97-6.52,1.93-13.93,2.57-20.49C967.28,136.94,965.29,92.94,957.44,50.28z M955.67,165.78
			c-1.04,9.86-2.38,20.34-4.04,30.11c-0.56,2.99-1.11,6.85-1.81,9.79c-3.92,18.3-19.39,32.89-37.84,35.79
			c-17.6,2.83-35.73,4.73-53.52,5.68c-20.1,1.14-40.46,0.94-60.54-0.59c-11.02-0.91-22.55-2.16-33.47-3.85
			c-2.81-0.39-5.41-0.83-7.97-1.38c-1.43-0.43-3.07-0.81-4.44-1.35c-0.8-0.32-2.14-0.74-2.89-1.11
			c-10.48-4.47-19.26-12.92-24.09-23.26c-3.79-7.85-4.64-16.73-6.07-25.25c-2.05-13.32-3.57-26.88-4.39-40.32
			c-1.53-23.58-1.06-47.5,1.21-71.02c0.89-8.8,2.09-18.15,3.47-26.9c1.69-12.12,7.55-22.94,16.83-30.96
			c6.61-5.74,14.86-9.5,23.46-11.12c44.55-7.92,90.38-8.93,135.22-2.71c3.81,0.56,9.69,1.41,13.41,2.09
			c2.8,0.43,5.52,0.96,8.19,1.59c1.49,0.48,3.23,0.93,4.68,1.51c0.84,0.36,2.26,0.84,3.04,1.23l2.94,1.44l2.83,1.65
			c0.84,0.48,1.89,1.28,2.7,1.84c7.91,5.73,14.13,13.85,17.43,23.04c1.17,3.04,1.88,6.21,2.44,9.42
			C958.45,89.07,959.46,127.69,955.67,165.78z"/>
	</g>
	<g>
		<path class="st1" d="M529.66,70.54c-0.64-4.44-1.35-9.09-2.11-13.53l-1.18-6.74c-3.48-19.35-18.1-36.02-36.96-41.66
			c-1.09-0.28-2.3-0.72-3.39-0.95c-1.62-0.31-3.53-0.8-5.16-0.99c-23.55-3.79-47.5-5.91-71.35-6.11
			c-20.42-0.23-41.01,1.02-61.28,3.49c-4.45,0.57-9.1,1.2-13.53,1.89L327.94,7c-19.26,3.13-36.08,17.49-42.01,36.15
			c-0.35,1.25-0.7,2.05-1.01,3.39c-0.33,1.63-0.84,3.5-1.07,5.16c-2.6,14.46-4.5,29.4-5.73,44.06
			c-3.01,36.37-1.59,73.16,4.16,109.29c3.68,23.1,21.78,41.65,44.8,45.93c33.22,6.12,67.31,8.63,101.06,7.05
			c18.25-0.83,36.7-3.17,54.68-6.38c20.99-3.7,39.07-20.02,44.41-40.7c0.33-0.95,0.64-2.65,0.84-3.6c0.21-1.15,0.52-2.36,0.64-3.55
			c1.94-12.35,3.34-25.03,4.31-37.52C535.28,134.4,534.1,102.17,529.66,70.54z M523.1,178.94c-1.01,8.05-2.34,16.12-3.78,24.11
			c-0.09,0.58-0.38,1.73-0.51,2.31c-0.21,0.84-0.46,2.18-0.78,2.97c-4.78,16.83-19.83,29.98-37.06,32.64
			c-28.68,4.54-57.95,6.73-86.99,6.32c-15.54-0.23-31.49-1.37-46.92-3.23c-5.53-0.67-11.14-1.47-16.66-2.31
			c-0.96-0.11-2.2-0.38-3.15-0.57c-18.55-3.44-33.63-18.98-37-37.52c-1.57-8.59-3.05-18.01-4.13-26.66
			c-3.06-24.52-4.12-49.44-3.01-74.13c0.65-15.67,2.25-31.6,4.64-47.09c0.16-0.97,0.59-4.16,0.78-5.01l0.64-3.2
			c2.37-10.08,8.07-19.26,15.93-26c6.63-5.71,14.86-9.45,23.43-11.06c46.7-8.27,94.78-8.96,141.65-1.76
			c1.94,0.25,4.73,0.79,6.69,1.1c0.99,0.16,4.13,0.69,5,0.85c0.81,0.16,2.38,0.56,3.2,0.72c0.95,0.21,2.17,0.67,3.13,0.93
			c12.93,4.13,23.9,14.04,29.43,26.43c1.76,3.94,3.02,8.1,3.73,12.35C528.11,93.46,528.66,136.57,523.1,178.94z"/>
	</g>
	<g>
		<path class="st1" d="M257.87,70.54c-0.64-4.44-1.35-9.09-2.12-13.53l-1.17-6.74c-3.49-19.35-18.12-36.02-36.96-41.66
			c-1.09-0.28-2.3-0.72-3.41-0.95c-1.6-0.31-3.53-0.8-5.15-0.99c-23.55-3.79-47.51-5.91-71.35-6.11
			c-20.42-0.23-41.02,1.02-61.3,3.49c-4.44,0.57-9.08,1.2-13.51,1.89L56.15,7c-19.26,3.13-36.08,17.49-42.01,36.15
			c-0.35,1.25-0.7,2.05-1.01,3.39c-0.33,1.63-0.85,3.5-1.07,5.16c-2.6,14.46-4.52,29.4-5.74,44.06c-3,36.37-1.58,73.16,4.16,109.29
			c3.69,23.1,21.79,41.65,44.81,45.93c33.22,6.12,67.29,8.63,101.06,7.05c18.25-0.83,36.7-3.17,54.67-6.38
			c21-3.7,39.08-20.02,44.43-40.7c0.32-0.95,0.63-2.65,0.84-3.6c0.21-1.15,0.51-2.36,0.64-3.55c1.94-12.35,3.34-25.03,4.29-37.52
			C263.47,134.4,262.31,102.17,257.87,70.54z M251.3,178.94c-1.01,8.05-2.34,16.12-3.78,24.11c-0.09,0.58-0.38,1.73-0.51,2.31
			c-0.21,0.84-0.46,2.18-0.78,2.97c-4.78,16.83-19.83,29.98-37.06,32.64c-28.68,4.54-57.95,6.73-86.99,6.32
			c-15.55-0.23-31.49-1.37-46.92-3.23c-5.54-0.67-11.14-1.47-16.66-2.31c-0.96-0.11-2.2-0.38-3.15-0.57
			c-18.56-3.44-33.63-18.98-37-37.52c-1.58-8.59-3.05-18.01-4.13-26.66c-3.07-24.52-4.13-49.44-3.01-74.13
			c0.65-15.67,2.25-31.6,4.63-47.09c0.17-0.97,0.59-4.16,0.78-5.01l0.33-1.59l0.31-1.6c2.37-10.08,8.08-19.26,15.94-26
			c6.63-5.71,14.85-9.45,23.43-11.06c46.68-8.27,94.78-8.96,141.65-1.76c1.94,0.25,4.73,0.79,6.69,1.1c0.99,0.16,4.13,0.69,5,0.85
			c0.8,0.16,2.38,0.56,3.2,0.72c0.95,0.21,2.17,0.67,3.13,0.93c12.93,4.13,23.9,14.04,29.42,26.43c1.78,3.94,3.04,8.1,3.74,12.35
			C256.32,93.46,256.87,136.57,251.3,178.94z"/>
	</g>
	<g>
		<path class="st1" d="M689.51,74.32c-0.53-6.86-1.16-14.41-1.89-21.23c-0.95-10.84-3.27-21.62-8.53-31.3
			c-3.6-6.47-8.71-12.67-16.07-15.1C649.35,2.38,635.05,0.01,620.7,0c-14.35-0.02-28.68,2.32-42.35,6.6
			c-7.39,2.39-12.53,8.61-16.15,15.09c-5.27,9.68-7.59,20.47-8.54,31.32c-0.73,6.82-1.33,14.36-1.88,21.23
			c-2.71,35.43-3.31,71.08-1.55,106.61c0.36,6.9,0.77,14.46,1.32,21.32c0.7,11.24,2.85,22.21,8.14,32.47
			c2.75,5.22,6.55,10.39,11.64,13.85c1.79,1.22,3.79,2.27,5.96,3c6.98,2.31,14.08,4.11,21.35,5.36c21.72,3.89,44.49,1.9,65.37-5.11
			c8.11-2.69,13.97-9.75,17.76-16.92c5.28-10.09,7.54-21.31,8.19-32.55c0.54-6.86,0.96-14.43,1.32-21.32
			C692.98,145.42,692.3,109.76,689.51,74.32z M683.44,175.14c-0.37,4.7-0.89,11.11-1.33,15.81c-0.7,6.86-1.15,13.85-2.46,20.63
			c-2.17,10.8-7.74,26.5-18.78,30.28c-26.15,8.05-54.42,8.35-80.54,0.18c-13.01-4.62-18.76-25.29-20.02-38.01
			c-1.01-9.47-1.9-19.47-2.63-28.98c-2.95-40.47-2.97-81.21,0.26-121.67c0.25-3.42,0.57-7.02,1.17-10.37
			c2.18-12.08,7.84-28.56,20.29-33.1c26.63-8.82,55.94-8.86,82.58-0.02c6.31,2.12,10.8,7.85,13.9,13.62
			c3.96,7.58,6.16,16.15,7.08,24.71c0.67,6.89,1.07,14.18,1.53,21.09C686.52,104.56,686.05,139.98,683.44,175.14z"/>
	</g>
	<g>
		<path class="st0" d="M0,316.02v14.85h6.07c0,2.57,0.95,4.57,2.86,5.97c1.9,1.42,4.7,2.05,8.4,1.88l4.17-0.12
			c0.69,0,1.67,0.1,2.94,0.31c1.27,0.21,2.6,0.69,4,1.43c1.38,0.75,2.59,1.89,3.64,3.43c1.04,1.54,1.67,3.6,1.9,6.17
			c0,0.51-0.02,1.02-0.09,1.55c-0.06,0.54-0.15,1.15-0.26,1.81l-10.23,7.11c-1.27,0.49-2.54,0.74-3.81,0.74
			c-0.81,0-1.44-0.07-1.91-0.25c-0.46-0.16-0.86-0.6-1.21-1.31c-0.35-0.7-0.75-1.76-1.21-3.18c-0.47-1.41-1.05-3.41-1.74-5.97
			l-7.45,1.86l2.95,10.72c0.8,2.74,1.79,5.41,2.95,7.98c1.15,2.57,2.42,4.9,3.81,6.97c1.38,2.09,2.86,3.74,4.42,4.99
			c1.57,1.25,3.21,1.88,4.95,1.88c0.8,0,1.53-0.09,2.16-0.25c0.64-0.17,1.14-0.3,1.48-0.38c0.22-0.07,1.58-0.95,4.07-2.62
			c2.48-1.65,6.16-4.07,11.01-7.23l14.91-9.85l1.22-0.37c0.69-0.17,1.32-0.25,1.9-0.25c1.74,0,3.23,0.83,4.5,2.49v17.33l12.83,9.85
			h2.09v-62.7h9.18v-14.85H0z M66.4,354.67c-0.69-1.41-1.53-2.95-2.51-4.62c-0.99-1.65-2.09-3.2-3.3-4.62
			c-1.22-1.41-2.54-2.59-3.99-3.54c-1.46-0.96-2.92-1.44-4.43-1.44c-0.11,0.17-0.41,0.21-0.86,0.12c-0.46-0.07-1.18,0.05-2.17,0.38
			c-0.97,0.33-2.22,1.01-3.73,2.05c-1.49,1.05-3.34,2.73-5.54,5.06c0-8.07-1.51-13.8-4.5-17.2H66.4V354.67z"/>
		<path class="st0" d="M172.87,330.87v-14.85H82.71v14.85h46.12l-40.05,14.96l3.64,23.43l5.02,0.63c2.54,0.33,5.61,0.95,9.19,1.86
			c3.58,0.91,7.37,2.3,11.35,4.12c3.99,1.83,8.03,4.17,12.14,7.03c4.1,2.88,7.95,6.43,11.53,10.66h2.09v-41.64
			c0.91,0,1.79,0.02,2.59,0.06c0.81,0.04,1.51,0.1,2.09,0.18c7.39,0.75,11.96,3.46,13.7,8.11l-2.6-1.37
			c-2.31-0.91-4.27-1.38-5.9-1.38c-1.38,0-2.94,0.51-4.68,1.51c-1.73,0.99-2.6,2.44-2.6,4.36c0,1.51,0.7,2.85,2.09,4.06
			c1.38,1.2,3.12,1.8,5.2,1.8c1.27,0,2.67-0.33,4.17-1c1.49-0.67,2.91-1.59,4.25-2.8c1.32-1.21,2.46-2.64,3.38-4.31
			c0.93-1.65,1.38-3.48,1.38-5.48c0-2.67-0.69-5.32-2.07-7.98c-1.39-2.65-3.21-5.12-5.47-7.42c-2.26-2.28-4.74-4.26-7.45-5.92
			c-2.71-1.65-5.41-2.83-8.06-3.48H172.87z M131.08,376.49c-2.09-2.25-4.02-4.23-5.81-5.99c-1.79-1.74-3.55-3.07-5.28-3.99
			l-5.21-2.88l16.3-6.97V376.49z"/>
		<path class="st0" d="M165.07,316.02v14.85h65.89v26.93c0-4.74-1.1-8.4-3.3-10.97c-2.2-2.58-4.86-3.88-7.98-3.88
			c-2.76,0-5.37,1.23-7.8,3.68c-2.43,2.46-3.64,6.05-3.64,10.79c0,1.17,0.06,2.42,0.17,3.74c-1.27-5.73-3.7-10.13-7.28-13.22
			c-3.7-3.23-7.69-4.85-11.96-4.85c-2.2,0-4.37,0.47-6.5,1.43c-2.15,0.95-4.07,2.41-5.81,4.36c-1.73,1.96-3.12,4.39-4.16,7.29
			c-1.04,2.91-1.57,6.28-1.57,10.11c0,4.23,0.79,7.9,2.34,10.97c1.57,3.07,3.58,5.6,6.07,7.6c2.48,2,5.2,3.46,8.14,4.37
			c2.95,0.91,5.81,1.37,8.59,1.37c3.81,0,7.13-0.81,9.97-2.43c2.83-1.63,4.25-3.94,4.25-6.92c0-2.41-0.56-4.41-1.65-5.99
			c-1.1-1.58-2.48-2.85-4.16-3.8c-1.68-0.95-3.53-1.62-5.55-2c-2.01-0.37-3.9-0.56-5.63-0.56c-2.54,0-5,0.19-7.37,0.56
			c-2.37,0.38-4.25,0.78-5.64,1.18l-1.9,0.51l-0.35,0.12c3-2.41,6.03-4.16,9.1-5.24c3.06-1.07,6.03-1.62,8.93-1.62
			c2.78,0,5.39,0.42,7.89,1.25c2.48,0.84,4.68,1.91,6.59,3.25c1.9,1.33,3.49,2.85,4.76,4.55c1.27,1.7,2.13,3.42,2.6,5.17l2.6-0.12
			c0.22-5.41,1.21-9.12,2.95-11.17c1.73-2.02,3.52-3.05,5.37-3.05l1.21,0.25h0.36l0.35,0.12c1.73,0.67,3.26,1.97,4.59,3.94
			c1.33,1.95,2.46,4.15,3.38,6.6c0.93,2.46,1.68,4.97,2.26,7.54c0.57,2.58,0.97,4.86,1.21,6.86l0.52,3.99h2.95v-62.7h9.19v-14.85
			H165.07z"/>
		<path class="st0" d="M345.22,316.02v18.33c-9.26-12.22-18.84-18.33-28.79-18.33c-4.27,0-7.95,0.65-11.01,1.94
			c-3.06,1.28-5.6,2.89-7.63,4.8c-2.02,1.91-3.5,4.05-4.42,6.42c-0.93,2.37-1.39,4.59-1.39,6.68c0,2.99,0.9,5.39,2.69,7.23
			c1.79,1.83,3.84,2.74,6.16,2.74c1.62,0,3.09-0.31,4.42-0.94c1.33-0.62,2.86-0.94,4.59-0.94c1.39,0,3.01,0.42,4.86,1.25
			l-15.78,7.11l15.78,18.57l30.52-15.7v17.94c0,2.58,1.09,5.03,3.28,7.35c1.27,1,2.15,2.17,2.6,3.49
			c-7.86-6.98-16.65-10.46-26.35-10.46c-2.78,0-5.81,0.31-9.11,0.93c-3.3,0.63-6.5,0.94-9.63,0.94c-8.21,0-12.3-3.32-12.3-9.97
			l-1.74,0.25c0,7.98,2.17,14.31,6.5,19.02c4.33,4.69,10.49,7.05,18.46,7.05c3.94,0,7.49-0.17,10.66-0.51
			c3.18-0.33,5.99-0.73,8.42-1.18c2.43-0.46,4.48-0.85,6.16-1.18c1.67-0.33,3.04-0.49,4.07-0.49c3.34,0,6.53,1.07,9.54,3.25
			l2.25,1.99h2.09v-62.7h9.18v-14.85H345.22z M319.03,343.82c-0.35-2.58-3.01-4.53-7.97-5.86l0.17-0.12c0-0.33,0.46-0.91,1.38-1.74
			c0.93-0.83,2.09-1.67,3.47-2.49c1.39-0.84,2.89-1.57,4.5-2.18c1.62-0.63,3.18-0.94,4.69-0.94c3.92,0,7.8,1.75,11.61,5.23
			L319.03,343.82z"/>
		<path class="st0" d="M370.7,316.02v23.31l-2.09-8.47l-3.64-14.85h-3.47v14.85h3.47l5.73,22.31v30.42l12.82,9.97h2.09v-62.7h9.19
			v-14.85H370.7z"/>
		<path class="st0" d="M407.71,354.24c2.6-3.04,5.41-6.01,8.42-8.92c3-2.9,5.78-5.45,8.32-7.66c2.54-2.2,4.63-3.92,6.24-5.17
			c1.23-0.95,1.93-1.49,2.09-1.62h4.16v-14.85h-49.94v14.85h12.32c-4.16,10.64-6.24,20.4-6.24,29.3c0,4.65,0.56,9.01,1.65,13.08
			c1.1,4.07,2.65,7.61,4.68,10.6c2.02,3,4.5,5.34,7.45,7.05c2.95,1.7,6.33,2.55,10.14,2.55c3.12,0,5.84-0.46,8.14-1.37
			c2.32-0.91,4.22-2.1,5.73-3.55c1.51-1.46,2.6-3.12,3.29-4.99c0.69-1.88,1.04-3.76,1.04-5.68c0-1.65-0.28-3.34-0.86-5.05
			c-0.58-1.7-1.47-3.22-2.69-4.55c-1.21-1.32-2.76-2.41-4.68-3.23c-1.91-0.84-4.13-1.25-6.68-1.25l-2.26,0.12
			c-2.31,0.33-4.27,1.01-5.89,2.05c-1.63,1.05-2.95,2.23-3.99,3.55c-1.05,1.33-1.85,2.73-2.43,4.18c-0.58,1.46-0.93,2.72-1.04,3.8
			l-0.36,2.25l-0.35-0.25c-0.35,0-0.8-0.21-1.38-0.63c-0.58-0.42-1.16-1-1.74-1.74c-0.58-0.75-1.1-1.64-1.55-2.69
			c-0.47-1.04-0.69-2.17-0.69-3.42c0-2.33,0.86-4.95,2.6-7.86C402.95,360.24,405.12,357.27,407.71,354.24z"/>
		<path class="st0" d="M480.62,316.02v20.82c0-0.07-0.05-0.16-0.17-0.25c-4.27-7.56-8.61-12.88-12.99-15.96
			c-4.39-3.07-8.56-4.62-12.49-4.62c-2.78,0-5.38,0.67-7.8,2c-2.43,1.33-4.52,3.13-6.24,5.42c-1.74,2.3-3.12,5.01-4.16,8.17
			c-1.05,3.16-1.57,6.53-1.57,10.09c0,7.4,1.62,12.72,4.86,15.97c3.23,3.23,7.39,4.86,12.48,4.86c2.09,0,4.16-0.3,6.24-0.88
			c2.09-0.58,3.96-1.42,5.64-2.49c1.67-1.09,3-2.33,3.99-3.74c0.97-1.42,1.47-2.95,1.47-4.62v-0.37c-0.23-2.42-0.86-4.52-1.9-6.31
			c-1.05-1.78-2.28-3.3-3.73-4.54c-1.46-1.25-2.99-2.25-4.6-3c-1.62-0.74-3-1.32-4.16-1.74l-2.07-0.63l-0.36-0.12
			c1.39-0.33,2.89-0.49,4.52-0.49c1.73,0,3.84,0.28,6.33,0.86c2.48,0.59,4.87,1.46,7.19,2.63c2.31,1.16,4.36,2.59,6.15,4.29
			c1.8,1.7,2.86,3.68,3.21,5.92c0.12,0.33,0.17,0.67,0.17,1v35.16l12.83,10.09h2.09v-62.7h9.18v-14.85H480.62z"/>
		<path class="st0" d="M496.92,316.02v14.85h46.12l-40.05,14.96l3.81,23.56h0.35l4.68,0.51c2.43,0.25,5.47,0.85,9.11,1.8
			c3.64,0.96,7.45,2.36,11.44,4.18c3.99,1.83,8.03,4.17,12.14,7.03c4.1,2.88,7.89,6.43,11.35,10.66h2.09v-62.7h9.18v-14.85H496.92z
			 M543.04,378.36c-4.05-4.66-7.74-7.95-11.09-9.86l-5.02-2.86l16.12-7.11V378.36z M534.2,381.23c-2.43-1.74-5.32-2.62-8.68-2.62
			c-3.47,0-6.42,0.88-8.84,2.62c-2.43,1.74-3.64,3.86-3.64,6.36c0,2.42,1.21,4.49,3.64,6.23c2.42,1.75,5.37,2.62,8.84,2.62
			c3.36,0,6.24-0.86,8.68-2.62c2.42-1.74,3.64-3.81,3.64-6.23C537.84,385.09,536.62,382.97,534.2,381.23z"/>
		<path class="st0" d="M642.57,289.84c-18.73,0-31.27,5.48-37.63,16.45l16.99,9.72H598v14.85h9.19v52.73l12.82,9.97h2.09v-62.7h9.19
			v-14.85h-9.19c3.12-8.81,14.04-13.22,32.76-13.22c15.38,0,26.25,2.09,32.6,6.23l1.55-0.74
			C678.86,295.99,663.37,289.84,642.57,289.84z"/>
		<path class="st0" d="M623.49,316.02v14.85h58.61v38.14l-2.25-5.62c-4.05-9.06-8.61-15.59-13.7-19.57
			c-5.1-3.99-10.06-5.99-14.92-5.99c-3,0-5.8,0.67-8.4,2c-2.6,1.33-4.89,3.13-6.85,5.42c-1.96,2.3-3.53,5.01-4.68,8.17
			c-1.16,3.16-1.74,6.6-1.74,10.35c0,7.31,1.62,12.55,4.86,15.71c3.23,3.16,7.28,4.73,12.13,4.73c2.2,0,4.33-0.28,6.42-0.86
			c2.07-0.58,3.92-1.39,5.54-2.43c1.63-1.04,2.95-2.31,4-3.8c1.04-1.51,1.55-3.12,1.55-4.86c-0.47-7.49-5.26-12.67-14.39-15.59
			l-2.43-0.75c1.39-0.33,2.95-0.49,4.69-0.49c9.01,0,18.31,5.32,27.91,15.96c2.31,2.58,4.55,5.38,6.76,8.42
			c2.18,3.04,4.27,6.33,6.23,9.91l2.09,3.86H697v-62.7h9.19v-14.85H623.49z"/>
		<path class="st0" d="M698.39,316.02v14.85h46.12l-40.05,14.96l3.81,23.56h0.35l4.68,0.51c2.43,0.25,5.47,0.85,9.11,1.8
			c3.64,0.96,7.45,2.36,11.44,4.18c3.99,1.83,8.03,4.17,12.14,7.03c4.1,2.88,7.89,6.43,11.35,10.66h2.07v-62.7h9.19v-14.85H698.39z
			 M744.51,378.36c-4.05-4.66-7.74-7.95-11.09-9.86l-5.02-2.86l16.12-7.11V378.36z M735.68,381.23c-2.43-1.74-5.32-2.62-8.68-2.62
			c-3.47,0-6.42,0.88-8.84,2.62c-2.43,1.74-3.64,3.86-3.64,6.36c0,2.42,1.21,4.49,3.64,6.23c2.42,1.75,5.37,2.62,8.84,2.62
			c3.36,0,6.24-0.86,8.68-2.62c2.42-1.74,3.64-3.81,3.64-6.23C739.32,385.09,738.09,382.97,735.68,381.23z"/>
		<path class="st0" d="M769.99,316.02v23.31l-2.07-8.47l-3.64-14.85h-3.47v14.85h3.47l5.71,22.31v30.42l12.83,9.97h2.09v-62.7h9.18
			v-14.85H769.99z"/>
		<path class="st0" d="M845.59,316.02v18.33l-0.35-0.49c-9.24-11.88-18.78-17.83-28.61-17.83c-4.28,0-7.95,0.65-11.01,1.94
			c-3.07,1.28-5.58,2.89-7.54,4.8c-1.74,1.69-3.07,3.55-4,5.6c-0.12,0.27-0.23,0.54-0.35,0.81c-0.22,0.57-0.42,1.14-0.58,1.69
			c-0.54,1.74-0.8,3.41-0.8,4.99c0,2.99,0.89,5.39,2.69,7.23c1.79,1.83,3.84,2.74,6.15,2.74c1.51,0,2.95-0.31,4.34-0.94
			c1.38-0.62,2.89-0.94,4.5-0.94c1.38,0,3.06,0.46,5.02,1.37l-15.94,6.98l15.77,18.57l30.35-15.57l0.35-0.12v28.67l12.83,9.72h2.09
			v-62.7h9.18v-14.85H845.59z M818.9,342.95c-0.7-2.57-3.42-4.57-8.16-5.97l4.16-3.75c3.47-2.49,6.89-3.74,10.23-3.74
			c3.94,0,7.81,1.75,11.62,5.24L818.9,342.95z"/>
		<path class="st0" d="M861.9,316.02v14.85h44.03c-4.39,0.41-8.32,1.28-11.79,2.62c-3.47,1.32-6.42,2.92-8.84,4.8
			c-2.43,1.86-4.28,3.86-5.55,5.99c-1.27,2.11-1.91,4.08-1.91,5.91c0,1.67,0.47,3.12,1.39,4.37c0.93,1.25,2.11,2.28,3.55,3.12
			c1.44,0.83,3.12,1.44,5.02,1.86c1.91,0.42,3.85,0.63,5.81,0.63c1.85,0,3.64-0.2,5.37-0.57c1.74-0.37,3.29-0.94,4.69-1.68
			c1.38-0.75,2.48-1.69,3.29-2.81c0.8-1.11,1.21-2.38,1.21-3.8c0-1.49-0.54-2.8-1.64-3.92c-1.1-1.12-2.46-2.1-4.07-2.92
			c-1.63-0.84-3.33-1.51-5.12-2c-1.79-0.49-3.38-0.83-4.76-1l-2.78-0.37c2.2-1,4.96-1.49,8.32-1.49c2.43,0,4.89,0.27,7.37,0.8
			c2.49,0.54,4.8,1.36,6.94,2.43c2.15,1.09,3.96,2.39,5.47,3.94c1.51,1.53,2.37,3.29,2.6,5.29v0.12c0,3.49-4.45,6.32-13.35,8.48
			l2.07,3.74l5.73-1.62c0.8-0.25,1.68-0.38,2.6-0.38c2.54,0,3.81,0.72,3.81,2.12v0.25c-0.23,0.67-0.81,1.32-1.74,1.94
			c-0.93,0.62-2.02,1.22-3.29,1.8c-1.27,0.59-2.71,1.06-4.33,1.44c-1.62,0.37-3.23,0.6-4.85,0.68l-4.33,0.25
			c-3.94,0-7.9-0.47-11.88-1.43c-3.99-0.95-7.37-2.43-10.14-4.42c-2.42-1.75-4.33-3.94-5.71-6.55c-1.39-2.62-2.43-5.29-3.12-8.03
			c-0.69-2.75-1.14-5.32-1.31-7.74c-0.17-2.41-0.26-4.32-0.26-5.73v-2.12l-2.42,0.12v3.49c0,2.25,0.11,5.41,0.35,9.47
			c0.22,4.08,0.84,8.4,1.81,12.97c0.99,4.58,2.41,9.05,4.25,13.4c1.85,4.37,4.45,7.96,7.81,10.79c3.58,3,7.59,5.16,12.04,6.49
			c4.45,1.32,8.81,1.99,13.09,1.99c4.27,0,8.06-0.52,11.35-1.55c3.3-1.04,6.01-2.43,8.16-4.18c2.13-1.74,3.75-3.75,4.85-6.05
			c1.1-2.28,1.64-4.66,1.64-7.17c0-2.49-0.67-5.08-1.99-7.79c-1.33-2.7-3.5-5.29-6.5-7.79l3.81-4.49c1.38-1.58,2.37-3.22,2.95-4.92
			c0.58-1.7,0.93-3.38,1.04-5.05c0-1.58-0.37-3.18-1.12-4.8c-0.75-1.63-1.91-3.1-3.47-4.43c-1.57-1.33-3.55-2.41-5.99-3.25
			c-2.07-0.65-4.45-1.07-7.11-1.23h23.76v-14.85H861.9z"/>
		<path class="st0" d="M940.09,316.02v23.31l-2.07-8.47l-3.64-14.85h-3.47v14.85h3.47l5.71,22.31v30.42l12.83,9.97h2.09v-62.7h9.18
			v-14.85H940.09z"/>
	</g>
</g>
</svg>
